<?xml version="1.0" encoding="utf-8"?>
<!-- Generator: Adobe Illustrator 21.1.0, SVG Export Plug-In . SVG Version: 6.00 Build 0)  -->
<svg version="1.1" id="Layer_1" xmlns="http://www.w3.org/2000/svg" xmlns:xlink="http://www.w3.org/1999/xlink" x="0px" y="0px"
	 viewBox="0 0 104 35" style="enable-background:new 0 0 104 35;" xml:space="preserve">
<style type="text/css">
	.st0{fill:#0051A5;}
	.st1{fill:#FEDF01;}
	.st2{fill:#FFFFFF;}
</style>
<title>Group 2</title>
<desc>Created with Sketch.</desc>
<g>
	<g id="Layer_2_4_">
		<g>
			<g>
				<g>
					<g>
						<g>
							<g>
								<path class="st0" d="M25.8,30.5c0,1.1-0.5,1.7-1.3,2.1c-3.4,1.3-7.5,2-11.4,2s-8-0.7-11.4-2c-0.9-0.3-1.3-1-1.3-2.1V1.1
									h25.5v29.4H25.8z"/>
								<g>
									<g>
										<path class="st1" d="M7.2,19c-3.5-2.2-4.7-3.2-4.8-4.6c0-0.3,0-0.8,0.2-1.1l-0.3-0.2c-0.3,0.4-0.4,1-0.4,1.5
											c0,0.8,0.3,1.5,0.6,2c0.5,0.8,1,1.2,2.3,2.2c1.4,1,2.3,2.3,2.9,3.5h0.2v-1.4c1.9,1.1,3.5,2.1,4.3,3.8h0.2
											C12,22.7,10.9,21.3,7.2,19z"/>
										<path class="st1" d="M23.4,24.6h-0.2c0-1.3-1.2-1.7-2.5-1.7h-4c0.1,0.6,0.2,1.4,0.1,2.1h-0.2c-0.4-3-2-4.4-4.4-6v1.3H12
											c-0.6-1.4-2-2.7-3.3-3.6l0,0c-0.3-0.2-0.7-0.5-1.1-0.8v1.5H7.4c-0.5-1.4-1.5-2.5-3-3.8c-1.5-1.4-2.2-2.2-2.5-3.2
											c-0.2-0.6-0.3-1-0.3-1.7c0-1.1,0.6-2.1,1.3-2.5v0.5C2.5,7.2,2.4,7.8,2.4,8.4c0,0.6,0.1,1.2,0.4,1.7
											c0.9,1.6,3.8,3.7,5.6,4.9c5.7,3.8,6.9,4.5,7.8,6.6c0.1,0.2,0.2,0.5,0.3,0.9c0.8-0.1,3.8-0.6,4.4-0.7c0.1,0,0.3,0,0.4-0.1
											c0.5-0.3,0.9-0.7,1.3-1.3l-2.2-0.2c-0.1,0.3-0.2,0.5-0.3,0.6h-0.2c0.1-0.2,0.1-0.4,0.2-0.7h-0.6V20l0.6-0.1
											c0.1-0.6,0.2-1.2,0.2-1.8l-2.8-0.2c0,0.3,0,0.6,0,0.8h-0.2c-0.1-0.3-0.1-0.6-0.1-0.8h-0.6V18h0.6c-0.1-0.7-0.1-1.4-0.1-2
											l-1.6-0.1c0.1,0.1,0.2,0.3,0.2,0.4c0.3,1,0.3,2.1,0.2,2.6h-0.2c0-0.6-0.2-1.4-0.4-1.8c-0.4-1.1-1.5-2-3.1-3.1v1.3H12
											c-0.6-1.8-2-2.8-4-3.8c-1.7-0.9-2.2-1.9-2.1-3.6l0.6,0.3c0.1,1.5,1.3,2.4,2.6,2.4c0.7,0,1.4-0.1,2.1-0.2
											c0.9-0.2,1.8-0.4,2.6-0.1V9.4h-0.6C13,9.6,12.6,9.8,12,9.8c-0.7,0-2-0.4-2-1.8c0-1.2,1-1.4,1.9-1.4c0.5,0,1.2,0,1.5,0
											c0.2,0,0.3,0,0.4-0.1s0.1-0.2,0.1-0.3c0-0.2,0-0.3,0-0.6c0-0.1,0-0.9,0-0.9h-4v1.6L8.4,5.7V5.3h0.7V4.7H6.4V3.4H5.5
											c-0.5,0-1,0.3-1.1,1c0,0.6,0.2,1.2,0.9,1.2h0.1v0.8H5.3c-1.1,0-2-0.9-2-2c0-1.2,1-2.1,2.2-2.1h1.9v1.3h7.5
											c0,0,0,1.6,0,1.9c0,0.3,0,0.8,0,1s-0.1,0.6-0.5,0.9c-0.2,0.2-0.6,0.2-1.1,0.2c-0.2,0-0.7,0-1.4,0
											c-0.9-0.1-1.1,0.3-1.1,0.6c0,0.1,0,0.1,0,0.2c0.4-0.3,1-0.5,1.6-0.3c1.1,0.4,1.5,0.4,2-0.1l0.1,0.1
											c-0.1,0.1-0.2,0.2-0.3,0.4h0.5v3l1.7-1h4.8c0,0,2,1.1,2.4,1.2c0.3,0.2,0.4,0.3,0.5,0.6c0,0.2,0,0.5-0.1,0.7
											c-0.1,0.1-0.6,1-0.9,1.5c0.8,0.9,1.4,2.1,1.4,3.5c0,1.2-0.5,2.8-2,4c0.7,0.2,1.1,0.6,1.4,1L23.4,24.6z M12.8,8.6
											c-0.7-0.1-1-0.1-1.4,0.3C11.6,9,11.8,9,12.1,9C12.4,9,12.6,8.8,12.8,8.6z M12.4,12.9l1.9-1.1c-0.4-0.2-0.8-0.3-1.3-0.3
											c-0.7,0-1.8,0.3-2.3,0.4C11,12,11.8,12.5,12.4,12.9z M20.8,13l0.3-0.4l-0.4-0.5l0.1-0.1l1.1,0.6l-0.2,0.8
											c0.2,0.1,0.4,0.2,0.6,0.4l0.7-1.2l-1.9-1h-4.2l-3.4,2.1c0.6,0.4,1.2,0.9,1.7,1.4c0.9-1.3,2.5-2.2,4.1-2.2
											C19.7,12.8,20.3,12.8,20.8,13z M20.5,17.8c0-0.6-0.1-1.2-0.2-1.7L18,16c-0.2,0.7-0.3,1.3-0.3,2L20.5,17.8z M21.2,16.2
											c0.1,0.6,0.1,1.1,0,1.6l2.2-0.1c-0.1-0.5-0.2-1-0.4-1.4L21.2,16.2z M20.1,15.4c-0.2-0.8-0.5-1.4-0.7-1.6
											c-0.1,0-0.2,0-0.3,0c-0.2,0-0.3,0-0.5,0c-0.2,0.6-0.4,1.1-0.6,1.7L20.1,15.4z M20.7,14.1c0.2,0.4,0.3,0.9,0.4,1.3l1.4-0.1
											C22,14.8,21.4,14.3,20.7,14.1z M23.2,19.8c0.2-0.4,0.3-0.8,0.3-1.2l-2.3-0.1c-0.1,0.6-0.3,1.2-0.5,1.7L23.2,19.8z
											 M17.5,14.2c-0.8,0.3-1.3,0.8-1.8,1.5l1.6-0.1C17.4,14.9,17.5,14.4,17.5,14.2z"/>
									</g>
									<g>
										<path class="st2" d="M14.6,28c0.6-0.1,1.3-0.6,1.3-1.4c0-0.7-0.3-1.4-2.3-1.4c-1.5,0-3.4,0-3.4,0v0.1
											c0.1,0,0.3,0.1,0.4,0.2c0.2,0.2,0.3,0.6,0.3,1v5.1c0,0,1.9,0,2.8,0c1.5,0,2.7-0.6,2.7-1.9C16.3,28.5,15.5,28.1,14.6,28z
											 M13.2,25.8c0.7,0,1.2,0.2,1.2,0.9c0,0.8-0.7,1-1.4,1c-0.4,0-0.6,0-0.6,0v-2C12.3,25.8,12.7,25.8,13.2,25.8z M13.2,31
											c-0.3,0-0.9,0-0.9,0v-2.6c0,0,0.5,0,0.9,0c1.2,0,1.6,0.4,1.6,1.2C14.8,30.6,14.2,31,13.2,31z"/>
										<path class="st2" d="M7.7,31.6h1.8l-2.3-3c0.9-0.3,1.6-0.8,1.6-1.7c0-1.1-0.7-1.7-2.4-1.7c-1.5,0-3.5,0-3.5,0v0.1
											c0.1,0,0.3,0.1,0.4,0.2c0.2,0.2,0.3,0.6,0.3,1.1v4.9h1.5v-2.8c0,0,0.3,0,0.5,0L7.7,31.6z M5.1,25.8c0,0,0.6,0,1,0
											c0.8,0,1.3,0.2,1.3,1.1c0,0.8-0.6,1.2-1.5,1.2c-0.4,0-0.8,0-0.8,0V25.8z"/>
										<path class="st2" d="M22.3,26.1c0.4,0.2,0.5,0.5,0.5,0.5h0.1l0.3-1.1c0,0-0.6-0.4-1.9-0.4c-2.1,0-3.6,1-3.6,3.3
											c0,2.6,1.8,3.2,3.5,3.2c1.5,0,2.1-0.5,2.1-0.5v-0.7c0,0-0.5,0.5-1.7,0.5c-0.9,0-2.3-0.4-2.4-2.5c0-1.9,0.8-2.6,2-2.6
											C21.7,25.8,22.1,26,22.3,26.1z"/>
									</g>
								</g>
							</g>
						</g>
					</g>
				</g>
			</g>
		</g>
	</g>
	<g>
		<g>
			<path class="st0" d="M27.9,34.1c-0.9,0-1.6-0.7-1.6-1.6s0.7-1.6,1.6-1.6s1.6,0.7,1.6,1.6S28.8,34.1,27.9,34.1z M27.9,31.2
				c-0.7,0-1.2,0.6-1.2,1.3c0,0.7,0.5,1.3,1.2,1.3s1.2-0.6,1.2-1.3C29.1,31.8,28.6,31.2,27.9,31.2z M28,31.6c0.3,0,0.5,0.2,0.5,0.5
				s-0.2,0.5-0.4,0.5c0,0,0.1,0,0.1,0.1c0.1,0.1,0.4,0.7,0.4,0.7h-0.4c-0.1-0.1-0.1-0.2-0.2-0.3c-0.2-0.3-0.2-0.4-0.3-0.4
				c0,0,0,0-0.1,0v0.7h-0.3v-1.8L28,31.6L28,31.6z M27.7,32.3h0.1c0.2,0,0.2,0,0.3-0.1c0,0,0.1-0.1,0.1-0.2s0-0.2-0.1-0.2
				c0,0-0.1,0-0.2,0h-0.1L27.7,32.3L27.7,32.3z"/>
		</g>
	</g>
	<g>
		<rect x="38.6" y="1" class="st0" width="0.8" height="33.5"/>
	</g>
	<g>
		<path class="st0" d="M49.8,11.8c-0.3-0.6-0.5-0.8-0.8-1.4c-0.8-1.5-1.1-1.9-1.4-2c-0.1,0-0.2-0.1-0.3-0.1v3.5h-1.6V3.5h3.1
			c1.5,0,2.4,1,2.4,2.4c0,1.2-0.8,2.3-1.9,2.3c0.2,0.1,0.2,0.2,0.3,0.3c0.5,0.6,2,3.2,2,3.2h-1.8V11.8z M48.9,5
			c-0.2-0.1-0.5-0.1-0.9-0.1h-0.6v2.3H48c0.7,0,1-0.1,1.3-0.3c0.2-0.2,0.3-0.5,0.3-0.8C49.5,5.5,49.3,5.1,48.9,5z"/>
		<path class="st0" d="M57.2,11.1c-0.5,0.5-1.1,0.9-2,0.9c-1.7,0-2.8-1.2-2.8-3.2c0-1.9,1.1-3.2,2.8-3.2c0.9,0,1.6,0.3,2.1,0.9
			C57.8,7.1,58,7.7,58,8.7C57.9,9.8,57.7,10.5,57.2,11.1z M55.9,7.1c-0.2-0.2-0.4-0.3-0.7-0.3c-0.4,0-0.7,0.2-0.8,0.6
			c-0.1,0.3-0.2,0.8-0.2,1.4c0,0.7,0.1,1.2,0.2,1.5s0.5,0.5,0.8,0.5c0.7,0,1-0.6,1-2.1C56.2,7.9,56.1,7.4,55.9,7.1z"/>
		<path class="st0" d="M62.2,11.9c-0.4,1.2-0.7,1.7-1.2,2c-0.4,0.3-0.9,0.5-1.5,0.6l-0.6-1.1c0.3-0.1,0.8-0.2,1-0.4
			c0.2-0.1,0.3-0.3,0.5-0.5c0.2-0.3,0.2-0.4,0.3-0.7h-0.4c-0.2-0.6-0.5-1.5-0.6-1.7l-1.5-4.3l1.6-0.2l1.1,3.6
			c0.1,0.4,0.3,1.2,0.3,1.3c0,0,0.1-0.7,0.2-1c0-0.2,0.1-0.6,0.2-0.9l0.9-2.9h1.7L62.2,11.9z"/>
		<path class="st0" d="M69.7,12.2c-0.4-0.2-0.7-0.4-0.9-0.7c-0.1,0.1-0.3,0.2-0.4,0.3c-0.3,0.2-0.7,0.3-1.2,0.3
			c-1.4,0-2.1-0.7-2.1-1.9c0-1.4,1-2.1,3-2.1c0.1,0,0.2,0,0.4,0V7.8c0-0.7-0.1-0.9-0.7-0.9c-0.5,0-1.1,0.3-1.8,0.7l-0.7-1.2
			c0.3-0.2,0.6-0.3,1-0.5c0.6-0.3,1.1-0.4,1.7-0.4c1,0,1.7,0.4,2,1.1c0.1,0.3,0.1,0.4,0.1,1.1v2.1c0,0.7,0,1,0.6,1.4L69.7,12.2z
			 M68.3,9.2c-1.1,0-1.5,0.2-1.5,0.9c0,0.5,0.3,0.8,0.7,0.8c0.3,0,0.6-0.2,0.8-0.4V9.2L68.3,9.2z"/>
		<path class="st0" d="M73.3,12c-0.7,0-1.2-0.3-1.4-0.8c-0.1-0.3-0.1-0.5-0.1-1.4V5.2c0-0.8,0-1.3-0.1-1.8L73.3,3
			c0.1,0.3,0.1,0.7,0.1,1.6v4.8c0,1.1,0,1.2,0.1,1.4c0.1,0.1,0.2,0.2,0.3,0.2c0.1,0,0.1,0,0.2,0l0.3,1C74,11.9,73.6,12,73.3,12z"/>
		<path class="st0" d="M81.8,11.8c-0.3,0-0.6,0-1.1,0h-2.6V3.5h2.8c1,0,1.5,0.2,2.1,0.6c0.5,0.4,0.7,0.9,0.7,1.5s-0.2,1-0.6,1.4
			c-0.2,0.2-0.4,0.3-0.8,0.4c1,0.3,1.7,1,1.7,2.1C84,10.7,83.3,11.8,81.8,11.8z M81.5,5c-0.1-0.1-0.3-0.1-0.7-0.1h-1v1.9h1
			c0.4,0,0.6,0,0.7-0.1c0.2-0.1,0.4-0.5,0.4-0.9C81.9,5.5,81.8,5.2,81.5,5z M81.5,8.3c-0.2-0.1-0.3-0.1-0.6-0.1h-1v2.3H81
			c0.3,0,0.6,0,0.8-0.2c0.3-0.2,0.4-0.6,0.4-1C82.1,8.8,81.9,8.4,81.5,8.3z"/>
		<path class="st0" d="M89.7,12.2c-0.4-0.2-0.7-0.4-0.9-0.7c-0.1,0.1-0.3,0.2-0.4,0.3c-0.3,0.2-0.7,0.3-1.2,0.3
			c-1.4,0-2.1-0.7-2.1-1.9c0-1.4,1-2.1,3-2.1c0.1,0,0.2,0,0.4,0V7.8c0-0.7-0.1-0.9-0.7-0.9c-0.5,0-1.1,0.3-1.8,0.7l-0.7-1.2
			c0.3-0.2,0.6-0.3,1-0.5c0.6-0.3,1.1-0.4,1.7-0.4c1,0,1.7,0.4,2,1.1c0.1,0.3,0.1,0.4,0.1,1.1v2.1c0,0.7,0,1,0.6,1.4L89.7,12.2z
			 M88.3,9.2c-1.1,0-1.5,0.2-1.5,0.9c0,0.5,0.3,0.8,0.7,0.8c0.3,0,0.6-0.2,0.8-0.4V9.2L88.3,9.2z"/>
		<path class="st0" d="M95,11.8v-4c0-0.7-0.1-0.9-0.5-0.9c-0.3,0-0.7,0.2-1.1,0.6v4.3h-1.6V7.4c0-0.5-0.1-1-0.2-1.4L93,5.6
			c0.1,0.3,0.2,0.5,0.2,0.8c0.2-0.2,0.4-0.3,0.7-0.5c0.3-0.2,0.7-0.3,1.1-0.3c0.7,0,1.3,0.4,1.5,0.9c0.1,0.2,0.1,0.5,0.1,0.9v4.5H95
			V11.8z"/>
		<path class="st0" d="M98.3,11.8V4.9c0-0.5,0-1-0.1-1.6l1.6-0.4c0.1,0.5,0.1,1.2,0.1,2v6.9H98.3z M102,11.8l-2.1-3.5l1.6-2.7h1.9
			l-2,2.6l2.4,3.6L102,11.8L102,11.8z"/>
	</g>
</g>
</svg>
