<?xml version="1.0" encoding="UTF-8"?>
<svg width="21px" height="27px" viewBox="0 0 21 27" version="1.1" xmlns="http://www.w3.org/2000/svg" xmlns:xlink="http://www.w3.org/1999/xlink">
    <!-- Generator: Sketch 43.2 (39069) - http://www.bohemiancoding.com/sketch -->
    <title>Group</title>
    <desc>Created with Sketch.</desc>
    <defs></defs>
    <g id="Page-1" stroke="none" stroke-width="1" fill="none" fill-rule="evenodd">
        <g id="Group">
            <g>
                <path d="M20.002,23.0932 C20.002,23.9432 19.616,24.4062 18.998,24.7162 C16.37,25.7202 13.202,26.2612 10.189,26.2612 C7.175,26.2612 4.007,25.7202 1.379,24.7162 C0.684,24.4842 0.375,23.9432 0.375,23.0932 L0.375,0.3752 L20.08,0.3752 L20.08,23.0932 L20.002,23.0932 Z" id="Fill-1" fill="#0051A5"></path>
                <path d="M20.002,23.0932 C20.002,23.9432 19.616,24.4062 18.998,24.7162 C16.37,25.7202 13.202,26.2612 10.189,26.2612 C7.175,26.2612 4.007,25.7202 1.379,24.7162 C0.684,24.4842 0.375,23.9432 0.375,23.0932 L0.375,0.3752 L20.08,0.3752 L20.08,23.0932 L20.002,23.0932 Z" id="Stroke-3" stroke="#FFFFFF" stroke-width="0.75"></path>
                <path d="M5.6294,14.207 C2.9244,12.507 1.9974,11.734 1.9204,10.652 C1.9204,10.42 1.9204,10.034 2.0744,9.802 L1.8434,9.648 C1.6114,9.957 1.5344,10.42 1.5344,10.807 C1.5344,11.425 1.7654,11.966 1.9974,12.352 C2.3834,12.97 2.7704,13.28 3.7754,14.052 C4.8574,14.825 5.5524,15.83 6.0154,16.757 L6.1704,16.757 L6.1704,15.675 C7.6384,16.525 8.8754,17.298 9.4934,18.611 L9.6474,18.611 C9.3384,17.066 8.4884,15.984 5.6294,14.207" id="Fill-5" fill="#FEDF01"></path>
                <path d="M13.5884,10.4975 C12.9704,10.7295 12.5844,11.1155 12.1974,11.6565 L13.4344,11.5795 C13.5114,11.0385 13.5884,10.6525 13.5884,10.4975 L13.5884,10.4975 Z M17.9934,14.8255 C18.1474,14.5165 18.2244,14.2065 18.2244,13.8975 L16.4474,13.8205 C16.3704,14.2845 16.2154,14.7475 16.0614,15.1345 L17.9934,14.8255 Z M16.0614,10.4205 C16.2154,10.7295 16.2934,11.1155 16.3704,11.4245 L17.4524,11.3475 C17.0664,10.9615 16.6024,10.5755 16.0614,10.4205 L16.0614,10.4205 Z M15.5974,11.4245 C15.4424,10.8065 15.2114,10.3435 15.0564,10.1885 L14.8244,10.1885 L14.4384,10.1885 C14.2844,10.6525 14.1294,11.0385 13.9744,11.5025 L15.5974,11.4245 Z M16.4474,12.0425 C16.5254,12.5065 16.5254,12.8935 16.4474,13.2795 L18.1474,13.2025 C18.0704,12.8155 17.9934,12.4295 17.8384,12.1205 L16.4474,12.0425 Z M15.9064,13.2795 C15.9064,12.8155 15.8294,12.3515 15.7524,11.9655 L13.9744,11.8885 C13.8204,12.4295 13.7434,12.8935 13.7434,13.4345 L15.9064,13.2795 Z M16.1384,9.5705 L16.3704,9.2615 L16.0614,8.8745 L16.1384,8.7975 L16.9884,9.2615 L16.8344,9.8795 C16.9884,9.9565 17.1434,10.0345 17.2974,10.1885 L17.8384,9.2615 L16.3704,8.4885 L13.1254,8.4885 L10.4974,10.1115 C10.9614,10.4205 11.4244,10.8065 11.8114,11.1935 C12.5064,10.1885 13.7434,9.4935 14.9794,9.4935 C15.2884,9.4155 15.7524,9.4155 16.1384,9.5705 L16.1384,9.5705 Z M9.6474,9.4935 L11.1154,8.6435 C10.8064,8.4885 10.4974,8.4115 10.1114,8.4115 C9.5704,8.4115 8.7204,8.6435 8.3344,8.7205 C8.5664,8.7975 9.1844,9.1845 9.6474,9.4935 L9.6474,9.4935 Z M9.9564,6.1705 C9.4164,6.0935 9.1844,6.0935 8.8754,6.4025 C9.0294,6.4795 9.1844,6.4795 9.4164,6.4795 C9.6474,6.4795 9.8024,6.3255 9.9564,6.1705 L9.9564,6.1705 Z M18.1474,18.5345 L17.9934,18.5345 C17.9934,17.5295 17.0664,17.2205 16.0614,17.2205 L12.9704,17.2205 C13.0474,17.6845 13.1254,18.3025 13.0474,18.8435 L12.8934,18.8435 C12.5844,16.5245 11.3474,15.4435 9.4934,14.2065 L9.4934,15.2115 L9.3384,15.2115 C8.8754,14.1295 7.7934,13.1245 6.7884,12.4295 C6.5564,12.2745 6.2474,12.0425 5.9384,11.8115 L5.9384,12.9705 L5.7844,12.9705 C5.3974,11.8885 4.6254,11.0385 3.4654,10.0345 C2.3064,8.9525 1.7654,8.3335 1.5344,7.5615 C1.3794,7.0975 1.3024,6.7885 1.3024,6.2475 C1.3024,5.3975 1.7654,4.6245 2.3064,4.3155 L2.3064,4.7025 C1.9974,5.0885 1.9204,5.5525 1.9204,6.0165 C1.9204,6.4795 1.9974,6.9435 2.2294,7.3295 C2.9244,8.5655 5.1654,10.1885 6.5564,11.1155 C10.9614,14.0525 11.8884,14.5935 12.5844,16.2155 C12.6614,16.3705 12.7384,16.6015 12.8164,16.9115 C13.4344,16.8335 15.7524,16.4475 16.2154,16.3705 C16.2934,16.3705 16.4474,16.3705 16.5254,16.2925 C16.9114,16.0615 17.2204,15.7525 17.5294,15.2885 L15.8294,15.1345 C15.7524,15.3655 15.6744,15.5205 15.5974,15.5975 L15.4424,15.5975 C15.5204,15.4435 15.5204,15.2885 15.5974,15.0565 L15.1334,15.0565 L15.1334,14.9795 L15.5974,14.9025 C15.6744,14.4385 15.7524,13.9755 15.7524,13.5115 L13.5884,13.3565 L13.5884,13.9755 L13.4344,13.9755 C13.3564,13.7435 13.3564,13.5115 13.3564,13.3565 L12.8934,13.3565 L12.8934,13.4345 L13.3564,13.4345 C13.2794,12.8935 13.2794,12.3515 13.2794,11.8885 L12.0434,11.8115 C12.1204,11.8885 12.1974,12.0425 12.1974,12.1205 C12.4294,12.8935 12.4294,13.7435 12.3524,14.1295 L12.1974,14.1295 C12.1974,13.6655 12.0434,13.0475 11.8884,12.7385 C11.5794,11.8885 10.7294,11.1935 9.4934,10.3435 L9.4934,11.3475 L9.3384,11.3475 C8.8754,9.9565 7.7934,9.1845 6.2474,8.4115 C4.9344,7.7155 4.5474,6.9435 4.6254,5.6295 L5.0884,5.8615 C5.1654,7.0205 6.0924,7.7155 7.0974,7.7155 C7.6384,7.7155 8.1794,7.6385 8.7204,7.5615 C9.4154,7.4065 10.1114,7.2525 10.7294,7.4835 L10.7294,6.7885 L10.2654,6.7885 C10.1114,6.9435 9.8024,7.0975 9.3384,7.0975 C8.7974,7.0975 7.7934,6.7885 7.7934,5.7065 C7.7934,4.7795 8.5664,4.6245 9.2614,4.6245 L10.4204,4.6245 C10.5744,4.6245 10.6514,4.6245 10.7294,4.5475 C10.8064,4.4705 10.8064,4.3935 10.8064,4.3155 L10.8064,3.8515 L10.8064,3.1565 L7.7154,3.1565 L7.7154,4.3935 L6.5564,3.9295 L6.5564,3.6205 L7.0974,3.6205 L7.0974,3.1565 L5.0114,3.1565 L5.0114,2.1525 L4.3164,2.1525 C3.9294,2.1525 3.5434,2.3845 3.4654,2.9245 C3.4654,3.3885 3.6204,3.8515 4.1614,3.8515 L4.2384,3.8515 L4.2384,4.4705 L4.1614,4.4705 C3.3114,4.4705 2.6154,3.7745 2.6154,2.9245 C2.6154,1.9975 3.3884,1.3025 4.3164,1.3025 L5.7834,1.3025 L5.7834,2.3065 L11.5794,2.3065 L11.5794,3.7745 L11.5794,4.5475 C11.5794,4.7025 11.5024,5.0115 11.1924,5.2435 C11.0384,5.3975 10.7294,5.3975 10.3424,5.3975 L9.2614,5.3975 C8.5664,5.3205 8.4114,5.6295 8.4114,5.8615 L8.4114,6.0165 C8.7204,5.7845 9.1844,5.6295 9.6474,5.7845 C10.4974,6.0935 10.8064,6.0935 11.1924,5.7065 L11.2704,5.7845 C11.1924,5.8615 11.1154,5.9385 11.0384,6.0935 L11.4244,6.0935 L11.4244,8.4115 L12.7384,7.6385 L16.4474,7.6385 C16.4474,7.6385 17.9934,8.4885 18.3024,8.5655 C18.5334,8.7205 18.6114,8.7975 18.6884,9.0295 C18.6884,9.1845 18.6884,9.4155 18.6114,9.5705 C18.5334,9.6475 18.1474,10.3435 17.9154,10.7295 C18.5334,11.4245 18.9974,12.3515 18.9974,13.4345 C18.9974,14.3615 18.6114,15.5975 17.4524,16.5245 C17.9934,16.6795 18.3024,16.9885 18.5334,17.2975 L18.1474,18.5345 Z" id="Fill-7" fill="#FEDF01"></path>
                <path d="M10.2656,23.4795 L9.5706,23.4795 L9.5706,21.4705 L10.2656,21.4705 C11.1926,21.4705 11.5016,21.7795 11.5016,22.3975 C11.5016,23.1705 11.0386,23.4795 10.2656,23.4795 M10.2656,19.4615 C10.8066,19.4615 11.1926,19.6155 11.1926,20.1565 C11.1926,20.7745 10.6526,20.9295 10.1116,20.9295 L9.6476,20.9295 L9.6476,19.3845 C9.5706,19.4615 9.8796,19.4615 10.2656,19.4615 M11.3476,21.1615 C11.8106,21.0835 12.3516,20.6975 12.3516,20.0795 C12.3516,19.5385 12.1196,18.9975 10.5746,18.9975 L7.9476,18.9975 L7.9476,19.0755 C8.0246,19.0755 8.1796,19.1525 8.2566,19.2295 C8.4116,19.3845 8.4886,19.6935 8.4886,20.0025 L8.4886,23.9435 L10.6526,23.9435 C11.8106,23.9435 12.7386,23.4795 12.7386,22.4755 C12.6616,21.5475 12.0426,21.2385 11.3476,21.1615" id="Fill-9" fill="#FFFFFF"></path>
                <path d="M4.0068,19.4614 L4.7788,19.4614 C5.3978,19.4614 5.7838,19.6154 5.7838,20.3114 C5.7838,20.9294 5.3198,21.2384 4.6248,21.2384 L4.0068,21.2384 L4.0068,19.4614 Z M6.0158,23.9434 L7.4068,23.9434 L5.6298,21.6254 C6.3248,21.3934 6.8658,21.0064 6.8658,20.3114 C6.8658,19.4614 6.3248,18.9974 5.0108,18.9974 L2.3068,18.9974 L2.3068,19.0754 C2.3838,19.0754 2.5388,19.1524 2.6158,19.2294 C2.7708,19.3844 2.8478,19.6934 2.8478,20.0794 L2.8478,23.8654 L4.0068,23.8654 L4.0068,21.7024 L4.3928,21.7024 L6.0158,23.9434 Z" id="Fill-11" fill="#FFFFFF"></path>
                <path d="M17.2974,19.6933 C17.6064,19.8473 17.6844,20.0793 17.6844,20.0793 L17.7614,20.0793 L17.9934,19.2293 C17.9934,19.2293 17.5294,18.9203 16.5254,18.9203 C14.9024,18.9203 13.7434,19.6933 13.7434,21.4703 C13.7434,23.4793 15.1334,23.9433 16.4474,23.9433 C17.6064,23.9433 18.0704,23.5563 18.0704,23.5563 L18.0704,23.0163 C18.0704,23.0163 17.6844,23.4023 16.7564,23.4023 C16.0614,23.4023 14.9794,23.0933 14.9024,21.4703 C14.9024,20.0023 15.5204,19.4613 16.4474,19.4613 C16.8344,19.4613 17.1434,19.6153 17.2974,19.6933" id="Fill-13" fill="#FFFFFF"></path>
            </g>
        </g>
    </g>
</svg>