<?xml version="1.0" encoding="UTF-8"?>
<svg width="380px" height="60px" viewBox="0 0 380 60" version="1.1" xmlns="http://www.w3.org/2000/svg" xmlns:xlink="http://www.w3.org/1999/xlink">
    <!-- Generator: Sketch 43.2 (39069) - http://www.bohemiancoding.com/sketch -->
    <title>Group</title>
    <desc>Created with Sketch.</desc>
    <defs></defs>
    <g id="Page-1" stroke="none" stroke-width="1" fill="none" fill-rule="evenodd">
        <g id="floating-v1---pre-sign-on" transform="translate(-490.000000, 0.000000)">
            <g id="Group" transform="translate(490.000000, 0.000000)">
                <rect id="White-Ribon-Copy-2" fill="#FFFFFF" x="0" y="0" width="380" height="60"></rect>
                <g id="rbc-logo-copy" transform="translate(15.000000, 10.000000)" fill-rule="nonzero">
                    <path d="M30.3532398,34.7062238 C30.3532398,36.0003541 29.7649987,36.7062434 28.823813,37.1768363 C24.8237736,38.7062631 20.0001967,39.5298006 15.4119163,39.5298006 C10.8236359,39.5298006 6.00005902,38.7062631 2.00001967,37.1768363 C0.941185729,36.8238916 0.470592865,36.0003541 0.470592865,34.7062238 L0.470592865,0.117648216 L30.470888,0.117648216 L30.470888,34.7062238 L30.3532398,34.7062238 Z" id="Shape" fill="#0051A5"></path>
                    <path d="M27.5296826,27.764979 L27.2943861,27.764979 C27.2943861,26.2355522 25.8826075,25.7649593 24.3531807,25.7649593 L19.6472521,25.7649593 C19.7649003,26.4708486 19.8825485,27.4120344 19.7649003,28.2355719 L19.5296039,28.2355719 C19.059011,24.7061254 17.1766396,23.0590504 14.3530824,21.1766789 L14.3530824,22.7061057 L14.1177859,22.7061057 C13.4118966,21.0590307 11.7648216,19.5296039 10.2353948,18.4707699 L10.2353948,18.4707699 C9.88245015,18.2354735 9.41185729,17.8825289 8.94126443,17.5295842 L8.94126443,19.2943074 L8.70596799,19.2943074 C8.11772691,17.6472324 6.94124475,16.353102 5.17652151,14.8236752 C3.41179827,13.1766002 2.58826075,12.2354145 2.23531611,11.0589323 C2.00001967,10.353043 1.88237146,9.88245015 1.88237146,9.05891264 C1.88237146,7.76478226 2.58826075,6.5883001 3.41179827,6.11770724 L3.41179827,6.70594832 C2.9412054,7.2941894 2.82355719,8.0000787 2.82355719,8.70596799 C2.82355719,9.41185729 2.9412054,10.1177466 3.29415005,10.7059877 C4.352984,12.5883591 7.76478226,15.0589717 9.88245015,16.4707503 C16.5883985,20.9413825 18.0001771,21.76492 19.059011,24.2355325 C19.1766592,24.470829 19.2943074,24.8237736 19.4119557,25.2943665 C20.3531414,25.1767183 23.8825879,24.5884772 24.5884772,24.470829 C24.7061254,24.470829 24.9414218,24.470829 25.05907,24.3531807 C25.6473111,24.0002361 26.117904,23.5296432 26.5884968,22.8237539 L24.0002361,22.5884575 C23.8825879,22.9414021 23.7649397,23.1766986 23.6472914,23.2943468 L23.411995,23.2943468 C23.5296432,23.0590504 23.5296432,22.8237539 23.6472914,22.4708093 L22.9414021,22.4708093 L22.9414021,22.3531611 L23.6472914,22.2355128 C23.7649397,21.5296236 23.8825879,20.8237343 23.8825879,20.117845 L20.5884378,19.8825485 L20.5884378,20.8237343 L20.3531414,20.8237343 C20.2354932,20.4707896 20.2354932,20.117845 20.2354932,19.8825485 L19.5296039,19.8825485 L19.5296039,20.0001967 L20.2354932,20.0001967 C20.117845,19.1766592 20.117845,18.3531217 20.117845,17.6472324 L18.2354735,17.5295842 C18.3531217,17.6472324 18.4707699,17.8825289 18.4707699,18.0001771 C18.8237146,19.1766592 18.8237146,20.4707896 18.7060664,21.0590307 L18.4707699,21.0590307 C18.4707699,20.3531414 18.2354735,19.4119557 18.0001771,18.9413628 C17.5295842,17.6472324 16.2354538,16.5883985 14.3530824,15.2942681 L14.3530824,16.8236949 L14.1177859,16.8236949 C13.4118966,14.706027 11.7648216,13.5295449 9.41185729,12.3530627 C7.41183762,11.2942287 6.82359654,10.1177466 6.94124475,8.11772691 L7.64713405,8.47067156 C7.76478226,10.2353948 9.17656086,11.2942287 10.7059877,11.2942287 C11.5295252,11.2942287 12.3530627,11.1765805 13.1766002,11.0589323 C14.2354342,10.8236359 15.2942681,10.5883395 16.2354538,10.9412841 L16.2354538,9.88245015 L15.5295645,9.88245015 C15.2942681,10.1177466 14.8236752,10.353043 14.1177859,10.353043 C13.2942484,10.353043 11.7648216,9.88245015 11.7648216,8.23537513 C11.7648216,6.82359654 12.9413038,6.5883001 14.0001377,6.5883001 L15.764861,6.5883001 C16.0001574,6.5883001 16.1178056,6.5883001 16.2354538,6.47065189 C16.353102,6.35300367 16.353102,6.23535545 16.353102,6.11770724 L16.353102,5.41181794 L16.353102,4.352984 L11.6471734,4.352984 L11.6471734,6.23535545 L9.88245015,5.52946616 L9.88245015,5.05887329 L10.7059877,5.05887329 L10.7059877,4.352984 L7.52948583,4.352984 L7.52948583,2.82355719 L6.47065189,2.82355719 C5.88241081,2.82355719 5.29416973,3.17650184 5.17652151,4.00003935 C5.17652151,4.70592865 5.41181794,5.41181794 6.23535545,5.41181794 L6.35300367,5.41181794 L6.35300367,6.35300367 L6.23535545,6.35300367 C4.94122508,6.35300367 3.88239113,5.29416973 3.88239113,4.00003935 C3.88239113,2.58826075 5.05887329,1.52942681 6.47065189,1.52942681 L8.70596799,1.52942681 L8.70596799,3.05885362 L17.5295842,3.05885362 L17.5295842,5.29416973 L17.5295842,6.47065189 C17.5295842,6.70594832 17.411936,7.17654118 16.9413431,7.52948583 C16.7060467,7.76478226 16.2354538,7.76478226 15.6472127,7.76478226 L14.0001377,7.76478226 C12.9413038,7.64713405 12.7060073,8.11772691 12.7060073,8.47067156 L12.7060073,8.70596799 C13.1766002,8.35302335 13.8824895,8.11772691 14.5883788,8.35302335 C15.8825092,8.82361621 16.353102,8.82361621 16.9413431,8.23537513 L17.0589913,8.35302335 C16.9413431,8.47067156 16.8236949,8.58831978 16.7060467,8.82361621 L17.2942878,8.82361621 L17.2942878,12.3530627 L19.2943074,11.1765805 L24.9414218,11.1765805 C24.9414218,11.1765805 27.2943861,12.4707109 27.764979,12.5883591 C28.1179237,12.8236556 28.2355719,12.9413038 28.3532201,13.2942484 C28.3532201,13.5295449 28.3532201,13.8824895 28.2355719,14.1177859 C28.1179237,14.2354342 27.5296826,15.2942681 27.1767379,15.8825092 C28.1179237,16.9413431 28.823813,18.3531217 28.823813,20.0001967 C28.823813,21.4119753 28.2355719,23.2943468 26.4708486,24.7061254 C27.2943861,24.9414218 27.764979,25.4120147 28.1179237,25.8826075 L27.5296826,27.764979 Z M8.47067156,21.1766789 C4.352984,18.5884181 2.9412054,17.411936 2.82355719,15.764861 C2.82355719,15.4119163 2.82355719,14.8236752 3.05885362,14.4707306 L2.70590897,14.2354342 C2.35296432,14.706027 2.23531611,15.4119163 2.23531611,16.0001574 C2.23531611,16.9413431 2.58826075,17.7648806 2.9412054,18.3531217 C3.52944648,19.2943074 4.11768756,19.7649003 5.64711437,20.9413825 C7.2941894,22.1178646 8.35302335,23.6472914 9.05891264,25.05907 L9.29420907,25.05907 L9.29420907,23.411995 C11.5295252,24.7061254 13.4118966,25.8826075 14.3530824,27.8826272 L14.5883788,27.8826272 C14.1177859,25.5296629 12.8236556,23.8825879 8.47067156,21.1766789 Z M15.0589717,8.94126443 C14.2354342,8.82361621 13.8824895,8.82361621 13.4118966,9.29420907 C13.6471931,9.41185729 13.8824895,9.41185729 14.2354342,9.41185729 C14.5883788,9.41185729 14.8236752,9.17656086 15.0589717,8.94126443 Z M14.5883788,14.0001377 L16.8236949,12.7060073 C16.353102,12.4707109 15.8825092,12.3530627 15.2942681,12.3530627 C14.4707306,12.3530627 13.1766002,12.7060073 12.5883591,12.8236556 C12.9413038,12.9413038 13.8824895,13.5295449 14.5883788,14.0001377 Z M24.470829,14.1177859 L24.8237736,13.6471931 L24.3531807,13.058952 L24.470829,12.9413038 L25.7649593,13.6471931 L25.5296629,14.5883788 C25.7649593,14.706027 26.0002558,14.8236752 26.2355522,15.0589717 L27.0590897,13.6471931 L24.8237736,12.4707109 L19.8825485,12.4707109 L15.8825092,14.9413234 C16.5883985,15.4119163 17.2942878,16.0001574 17.8825289,16.5883985 C18.9413628,15.0589717 20.8237343,14.0001377 22.7061057,14.0001377 C23.1766986,13.8824895 23.8825879,13.8824895 24.470829,14.1177859 Z M24.1178843,19.7649003 C24.1178843,19.059011 24.0002361,18.3531217 23.8825879,17.7648806 L21.1766789,17.6472324 C20.9413825,18.4707699 20.8237343,19.1766592 20.8237343,20.0001967 L24.1178843,19.7649003 Z M24.9414218,17.8825289 C25.05907,18.5884181 25.05907,19.1766592 24.9414218,19.7649003 L27.5296826,19.6472521 C27.4120344,19.059011 27.2943861,18.4707699 27.0590897,18.0001771 L24.9414218,17.8825289 Z M23.6472914,16.9413431 C23.411995,16.0001574 23.0590504,15.2942681 22.8237539,15.0589717 L22.4708093,15.0589717 L21.8825682,15.0589717 C21.6472718,15.764861 21.4119753,16.353102 21.1766789,17.0589913 L23.6472914,16.9413431 Z M24.3531807,15.4119163 C24.5884772,15.8825092 24.7061254,16.4707503 24.8237736,16.9413431 L26.4708486,16.8236949 C25.8826075,16.2354538 25.1767183,15.6472127 24.3531807,15.4119163 Z M27.2943861,22.1178646 C27.5296826,21.6472718 27.6473308,21.1766789 27.6473308,20.706086 L24.9414218,20.5884378 C24.8237736,21.2943271 24.5884772,22.0002164 24.3531807,22.5884575 L27.2943861,22.1178646 Z M20.5884378,15.5295645 C19.6472521,15.8825092 19.059011,16.4707503 18.4707699,17.2942878 L20.3531414,17.1766396 C20.4707896,16.353102 20.5884378,15.764861 20.5884378,15.5295645 Z" id="Combined-Shape" fill="#FEDF01"></path>
                    <path d="M17.1766396,31.7650184 C17.8825289,31.6473701 18.7060664,31.0591291 18.7060664,30.1179433 C18.7060664,29.2944058 18.3531217,28.4708683 16.0001574,28.4708683 L12.000118,28.4708683 L12.000118,28.5885165 C12.1177663,28.5885165 12.3530627,28.7061647 12.4707109,28.823813 C12.7060073,29.0591094 12.8236556,29.5297022 12.8236556,30.0002951 L12.8236556,36.0003541 L16.1178056,36.0003541 C17.8825289,36.0003541 19.2943074,35.2944648 19.2943074,33.765038 C19.1766592,32.3532594 18.2354735,31.8826666 17.1766396,31.7650184 Z M15.5295645,29.1767576 C16.353102,29.1767576 16.9413431,29.412054 16.9413431,30.2355915 C16.9413431,31.1767773 16.1178056,31.4120737 15.2942681,31.4120737 L14.5883788,31.4120737 L14.5883788,29.0591094 C14.4707306,29.1767576 14.9413234,29.1767576 15.5295645,29.1767576 Z M15.5295645,35.2944648 L14.4707306,35.2944648 L14.4707306,32.2356112 L15.5295645,32.2356112 C16.9413431,32.2356112 17.411936,32.7062041 17.411936,33.6473898 C17.411936,34.823872 16.7060467,35.2944648 15.5295645,35.2944648 Z" id="Shape" fill="#FFFFFF"></path>
                    <path d="M9.05891264,36.0003541 L11.1765805,36.0003541 L8.47067156,32.4709077 C9.52950551,32.117963 10.353043,31.5297219 10.353043,30.470888 C10.353043,29.1767576 9.52950551,28.4708683 7.52948583,28.4708683 L3.41179827,28.4708683 L3.41179827,28.5885165 C3.52944648,28.5885165 3.76474292,28.7061647 3.88239113,28.823813 C4.11768756,29.0591094 4.23533578,29.5297022 4.23533578,30.1179433 L4.23533578,35.8827059 L6.00005902,35.8827059 L6.00005902,32.5885559 L6.5883001,32.5885559 L9.05891264,36.0003541 Z M6.00005902,29.1767576 L7.17654118,29.1767576 C8.11772691,29.1767576 8.70596799,29.412054 8.70596799,30.470888 C8.70596799,31.4120737 8.0000787,31.8826666 6.94124475,31.8826666 L6.00005902,31.8826666 L6.00005902,29.1767576 Z" id="Shape" fill="#FFFFFF"></path>
                    <path d="M26.2355522,29.5297022 C26.7061451,29.7649987 26.8237933,30.1179433 26.8237933,30.1179433 L26.9414415,30.1179433 L27.2943861,28.823813 C27.2943861,28.823813 26.5884968,28.3532201 25.05907,28.3532201 C22.5884575,28.3532201 20.8237343,29.5297022 20.8237343,32.2356112 C20.8237343,35.2944648 22.9414021,36.0003541 24.9414218,36.0003541 C26.7061451,36.0003541 27.4120344,35.4121131 27.4120344,35.4121131 L27.4120344,34.5885755 C27.4120344,34.5885755 26.8237933,35.1768166 25.4120147,35.1768166 C24.3531807,35.1768166 22.7061057,34.7062238 22.5884575,32.2356112 C22.5884575,30.0002951 23.5296432,29.1767576 24.9414218,29.1767576 C25.5296629,29.1767576 26.0002558,29.412054 26.2355522,29.5297022 Z" id="Shape" fill="#FFFFFF"></path>
                    <path d="M32.8238523,38.9415595 C31.7650184,38.9415595 30.9414808,38.118022 30.9414808,37.0591881 C30.9414808,36.0003541 31.7650184,35.1768166 32.8238523,35.1768166 C33.8826862,35.1768166 34.7062238,36.0003541 34.7062238,37.0591881 C34.7062238,38.118022 33.8826862,38.9415595 32.8238523,38.9415595 Z M32.8238523,35.5297613 C32.0003148,35.5297613 31.4120737,36.2356506 31.4120737,37.0591881 C31.4120737,37.8827256 32.0003148,38.5886149 32.8238523,38.5886149 C33.6473898,38.5886149 34.2356309,37.8827256 34.2356309,37.0591881 C34.2356309,36.2356506 33.6473898,35.5297613 32.8238523,35.5297613 Z M32.9415005,36.0003541 C33.2944452,36.0003541 33.5297416,36.2356506 33.5297416,36.5885952 C33.5297416,36.9415399 33.2944452,37.1768363 33.0591487,37.1768363 C33.0591487,37.1768363 33.1767969,37.1768363 33.1767969,37.2944845 C33.2944452,37.4121327 33.6473898,38.118022 33.6473898,38.118022 L33.1767969,38.118022 C33.0591487,38.0003738 33.0591487,37.8827256 32.9415005,37.7650774 C32.7062041,37.4121327 32.7062041,37.2944845 32.5885559,37.2944845 C32.5885559,37.2944845 32.5885559,37.2944845 32.4709077,37.2944845 L32.4709077,38.118022 L32.117963,38.118022 L32.117963,36.0003541 L32.9415005,36.0003541 Z M32.5885559,36.8238916 L32.7062041,36.8238916 C32.9415005,36.8238916 32.9415005,36.8238916 33.0591487,36.7062434 C33.0591487,36.7062434 33.1767969,36.5885952 33.1767969,36.470947 C33.1767969,36.3532988 33.1767969,36.2356506 33.0591487,36.2356506 L32.8238523,36.2356506 L32.7062041,36.2356506 L32.7062041,36.8238916 L32.5885559,36.8238916 Z" id="Shape" fill="#0051A5"></path>
                    <rect id="Rectangle-path" fill="#0051A5" x="45.4122114" y="0" width="1" height="39.4121524"></rect>
                    <path d="M58.5888116,12.7060073 C58.235867,12.000118 58.0005706,11.7648216 57.6476259,11.0589323 C56.7064402,9.29420907 56.3534955,8.82361621 56.0005509,8.70596799 C55.8829027,8.70596799 55.7652544,8.58831978 55.6476062,8.58831978 L55.6476062,12.7060073 L53.7652348,12.7060073 L53.7652348,2.9412054 L57.4123295,2.9412054 C59.1770527,2.9412054 60.2358867,4.11768756 60.2358867,5.76476259 C60.2358867,7.17654118 59.2947009,8.47067156 58.0005706,8.47067156 C58.235867,8.58831978 58.235867,8.70596799 58.3535152,8.82361621 C58.9417563,9.52950551 60.7064795,12.5883591 60.7064795,12.5883591 L58.5888116,12.5883591 L58.5888116,12.7060073 Z M57.5299777,4.70592865 C57.2946813,4.58828043 56.9417366,4.58828043 56.4711437,4.58828043 L55.7652544,4.58828043 L55.7652544,7.2941894 L56.4711437,7.2941894 C57.2946813,7.2941894 57.6476259,7.17654118 58.0005706,6.94124475 C58.235867,6.70594832 58.3535152,6.35300367 58.3535152,6.00005902 C58.235867,5.29416973 58.0005706,4.82357686 57.5299777,4.70592865 Z" id="Shape" fill="#0051A5"></path>
                    <path d="M66.5888903,12.7060073 L65.29476,12.7060073 L62.2359063,12.7060073 L62.2359063,2.9412054 L65.5300564,2.9412054 C66.7065385,2.9412054 67.2947796,3.17650184 68.0006689,3.6470947 C68.58891,4.11768756 68.8242064,4.70592865 68.8242064,5.41181794 C68.8242064,6.11770724 68.58891,6.5883001 68.1183171,7.05889297 C67.8830207,7.2941894 67.6477243,7.41183762 67.1771314,7.52948583 C68.3536136,7.88243048 69.1771511,8.70596799 69.1771511,10.0000984 C69.1771511,11.411877 68.3536136,12.7060073 66.5888903,12.7060073 Z M66.2359457,4.70592865 C66.1182975,4.58828043 65.883001,4.58828043 65.4124082,4.58828043 L64.235926,4.58828043 L64.235926,6.82359654 L65.4124082,6.82359654 C65.883001,6.82359654 66.1182975,6.82359654 66.2359457,6.70594832 C66.4712421,6.5883001 66.7065385,6.11770724 66.7065385,5.64711437 C66.7065385,5.29416973 66.5888903,4.94122508 66.2359457,4.70592865 Z M66.2359457,8.58831978 C66.0006492,8.47067156 65.883001,8.47067156 65.5300564,8.47067156 L64.3535742,8.47067156 L64.3535742,11.1765805 L65.6477046,11.1765805 C66.0006492,11.1765805 66.3535939,11.1765805 66.5888903,10.9412841 C66.941835,10.7059877 67.0594832,10.2353948 67.0594832,9.76480194 C66.941835,9.17656086 66.7065385,8.70596799 66.2359457,8.58831978 Z" id="Shape" fill="#0051A5"></path>
                    <path d="M74.8242655,12.9413038 C73.4124869,12.9413038 72.4713011,12.4707109 71.6477636,11.5295252 C70.8242261,10.5883395 70.4712815,9.41185729 70.4712815,8.0000787 C70.4712815,6.82359654 70.7065779,5.76476259 71.1771708,4.94122508 C71.8830601,3.52944648 73.2948386,2.70590897 74.9419137,2.70590897 C75.8830994,2.70590897 76.9419333,3.05885362 77.4125262,3.52944648 L76.4713405,4.82357686 C76.0007476,4.47063221 75.4125065,4.23533578 74.9419137,4.23533578 C74.2360244,4.23533578 73.6477833,4.58828043 73.2948386,5.05887329 C72.941894,5.64711437 72.7065976,6.47065189 72.7065976,7.52948583 C72.7065976,8.82361621 72.8242458,9.64715372 73.0595422,10.1177466 C73.4124869,10.8236359 74.1183762,11.1765805 74.9419137,11.1765805 C75.5301548,11.1765805 76.0007476,11.0589323 76.5889887,10.5883395 L77.5301744,11.8824698 C76.8242851,12.7060073 76.0007476,12.9413038 74.8242655,12.9413038 Z" id="Shape" fill="#0051A5"></path>
                    <path d="M86.8243835,12.7060073 L85.5302531,12.7060073 L82.4713995,12.7060073 L82.4713995,2.9412054 L85.7655496,2.9412054 C86.9420317,2.9412054 87.5302728,3.17650184 88.2361621,3.6470947 C88.8244032,4.11768756 89.0596996,4.70592865 89.0596996,5.41181794 C89.0596996,6.11770724 88.8244032,6.5883001 88.3538103,7.05889297 C88.1185139,7.2941894 87.8832174,7.41183762 87.4126246,7.52948583 C88.5891067,7.88243048 89.4126443,8.70596799 89.4126443,10.0000984 C89.4126443,11.411877 88.4714585,12.7060073 86.8243835,12.7060073 Z M86.3537906,4.70592865 C86.2361424,4.58828043 86.000846,4.58828043 85.5302531,4.58828043 L84.353771,4.58828043 L84.353771,6.82359654 L85.5302531,6.82359654 C86.000846,6.82359654 86.2361424,6.82359654 86.3537906,6.70594832 C86.5890871,6.5883001 86.8243835,6.11770724 86.8243835,5.64711437 C86.9420317,5.29416973 86.7067353,4.94122508 86.3537906,4.70592865 Z M86.4714389,8.58831978 C86.2361424,8.47067156 86.1184942,8.47067156 85.7655496,8.47067156 L84.5890674,8.47067156 L84.5890674,11.1765805 L85.8831978,11.1765805 C86.2361424,11.1765805 86.5890871,11.1765805 86.8243835,10.9412841 C87.1773282,10.7059877 87.2949764,10.2353948 87.2949764,9.76480194 C87.1773282,9.17656086 86.8243835,8.70596799 86.4714389,8.58831978 Z" id="Shape" fill="#0051A5"></path>
                    <path d="M96.0009444,13.1766002 C95.5303515,12.9413038 95.1774068,12.7060073 94.9421104,12.3530627 C94.8244622,12.4707109 94.5891658,12.5883591 94.4715176,12.7060073 C94.1185729,12.9413038 93.64798,13.058952 93.059739,13.058952 C91.4126639,13.058952 90.5891264,12.2354145 90.5891264,10.8236359 C90.5891264,9.17656086 91.7656086,8.35302335 94.1185729,8.35302335 L94.5891658,8.35302335 L94.5891658,8.0000787 C94.5891658,7.17654118 94.4715176,6.94124475 93.7656283,6.94124475 C93.1773872,6.94124475 92.4714979,7.2941894 91.6479604,7.76478226 L90.8244229,6.35300367 C91.1773675,6.11770724 91.5303121,6.00005902 92.000905,5.76476259 C92.7067943,5.41181794 93.2950354,5.29416973 94.0009247,5.29416973 C95.1774068,5.29416973 96.0009444,5.76476259 96.353889,6.5883001 C96.4715372,6.94124475 96.4715372,7.05889297 96.4715372,7.88243048 L96.4715372,10.353043 C96.4715372,11.1765805 96.4715372,11.5295252 97.1774265,12.000118 L96.0009444,13.1766002 Z M94.4715176,9.64715372 C93.1773872,9.64715372 92.7067943,9.88245015 92.7067943,10.7059877 C92.7067943,11.2942287 93.059739,11.6471734 93.5303318,11.6471734 C93.8832765,11.6471734 94.2362211,11.411877 94.4715176,11.1765805 L94.4715176,9.64715372 L94.4715176,9.64715372 Z" id="Shape" fill="#0051A5"></path>
                    <path d="M102.2363,12.7060073 L102.2363,8.0000787 C102.2363,7.17654118 102.118652,6.94124475 101.648059,6.94124475 C101.295114,6.94124475 100.824521,7.17654118 100.353928,7.64713405 L100.353928,12.7060073 L98.4715569,12.7060073 L98.4715569,7.52948583 C98.4715569,6.94124475 98.3539087,6.35300367 98.2362605,5.88241081 L99.8833355,5.41181794 C100.000984,5.76476259 100.118632,6.00005902 100.118632,6.35300367 C100.353928,6.11770724 100.589225,6.00005902 100.942169,5.76476259 C101.295114,5.52946616 101.765707,5.41181794 102.2363,5.41181794 C103.059837,5.41181794 103.765727,5.88241081 104.001023,6.47065189 C104.118671,6.70594832 104.118671,7.05889297 104.118671,7.52948583 L104.118671,12.8236556 L102.2363,12.8236556 L102.2363,12.7060073 Z" id="Shape" fill="#0051A5"></path>
                    <path d="M106.118691,12.7060073 L106.118691,4.58828043 C106.118691,4.00003935 106.118691,3.41179827 106.001043,2.70590897 L107.883414,2.23531611 C108.001062,2.82355719 108.001062,3.6470947 108.001062,4.58828043 L108.001062,12.7060073 L106.118691,12.7060073 Z M110.471675,12.7060073 L108.001062,8.58831978 L109.883434,5.41181794 L112.11875,5.41181794 L109.765786,8.47067156 L112.589343,12.7060073 L110.471675,12.7060073 Z" id="Shape" fill="#0051A5"></path>
                </g>
                <rect id="White-Ribon-Copy" fill="#006AC3" x="160" y="0" width="220" height="60"></rect>
                <text id="FR" font-family="FiraSans-Bold, Fira Sans" font-size="14" font-weight="bold" fill="#F8F6F0">
                    <tspan x="349.544" y="36">FR</tspan>
                </text>
                <rect id="Rectangle-2" fill="#CCCCCC" x="334" y="22" width="1" height="16"></rect>
                <text id="Personal-Banking" font-family="FiraSans-Medium, Fira Sans" font-size="12" font-weight="400" fill="#F8F6F0">
                    <tspan x="198.684" y="35">Personal Banking</tspan>
                </text>
                <g id="arrow-next-small" transform="translate(304.000000, 22.000000)" fill="#F8F6F0">
                    <path d="M8,16 C12.418,16 16,12.418 16,8 C16,3.582 12.418,0 8,0 C3.582,0 0,3.582 0,8 C0,12.418 3.582,16 8,16 M8,15 C4.141,15 1,11.859 1,8 C1,4.141 4.141,1 8,1 C11.859,1 15,4.141 15,8 C15,11.859 11.859,15 8,15" id="Fill-1"></path>
                    <path d="M6.5234,4.0547 C6.6504,4.0547 6.7794,4.1037 6.8774,4.2007 L10.3224,7.6467 C10.4164,7.7407 10.4684,7.8677 10.4684,7.9997 C10.4684,8.1327 10.4164,8.2597 10.3224,8.3537 L6.8774,11.7987 C6.6814,11.9937 6.3654,11.9937 6.1694,11.7987 C5.9744,11.6037 5.9744,11.2867 6.1694,11.0917 L9.2614,7.9997 L6.1694,4.9087 C5.9744,4.7127 5.9744,4.3967 6.1694,4.2007 C6.2674,4.1037 6.3944,4.0547 6.5234,4.0547" id="Fill-3"></path>
                </g>
            </g>
        </g>
    </g>
</svg>