<?xml version="1.0" encoding="utf-8"?>
<!-- Generator: Adobe Illustrator 19.2.1, SVG Export Plug-In . SVG Version: 6.00 Build 0)  -->
<svg version="1.1" id="One_line_x2C__cmyk_x2C__positive"
	 xmlns="http://www.w3.org/2000/svg" xmlns:xlink="http://www.w3.org/1999/xlink" x="0px" y="0px" viewBox="0 0 792 612"
	 style="enable-background:new 0 0 792 612;" xml:space="preserve">
<style type="text/css">
	.st0{fill:#0051A5;}
	.st1{fill:#FEDF01;}
	.st2{fill:#FFFFFF;}
</style>
<g id="Layer_2_4_">
	<g>
		<g>
			<g>
				<g>
					<g>
						<g>
							<path class="st0" d="M360.8,263.5c0,1.1-0.5,1.7-1.3,2.1c-3.4,1.3-7.5,2-11.4,2c-3.9,0-8-0.7-11.4-2c-0.9-0.3-1.3-1-1.3-2.1
								v-29.4h25.5V263.5z"/>
							<g>
								<g>
									<path class="st1" d="M342.2,252c-3.5-2.2-4.7-3.2-4.8-4.6c0-0.3,0-0.8,0.2-1.1l-0.3-0.2c-0.3,0.4-0.4,1-0.4,1.5
										c0,0.8,0.3,1.5,0.6,2c0.5,0.8,1,1.2,2.3,2.2c1.4,1,2.3,2.3,2.9,3.5h0.2v-1.4c1.9,1.1,3.5,2.1,4.3,3.8h0.2
										C347,255.7,345.9,254.3,342.2,252z"/>
									<path class="st1" d="M358.4,257.6h-0.2c0-1.3-1.2-1.7-2.5-1.7h-4c0.1,0.6,0.2,1.4,0.1,2.1h-0.2c-0.4-3-2-4.4-4.4-6v1.3
										h-0.2c-0.6-1.4-2-2.7-3.3-3.6h0c-0.3-0.2-0.7-0.5-1.1-0.8v1.5h-0.2c-0.5-1.4-1.5-2.5-3-3.8c-1.5-1.4-2.2-2.2-2.5-3.2
										c-0.2-0.6-0.3-1-0.3-1.7c0-1.1,0.6-2.1,1.3-2.5v0.5c-0.4,0.5-0.5,1.1-0.5,1.7c0,0.6,0.1,1.2,0.4,1.7
										c0.9,1.6,3.8,3.7,5.6,4.9c5.7,3.8,6.9,4.5,7.8,6.6c0.1,0.2,0.2,0.5,0.3,0.9c0.8-0.1,3.8-0.6,4.4-0.7c0.1,0,0.3,0,0.4-0.1
										c0.5-0.3,0.9-0.7,1.3-1.3l-2.2-0.2c-0.1,0.3-0.2,0.5-0.3,0.6h-0.2c0.1-0.2,0.1-0.4,0.2-0.7l-0.6,0v-0.1l0.6-0.1
										c0.1-0.6,0.2-1.2,0.2-1.8l-2.8-0.2c0,0.3,0,0.6,0,0.8h-0.2c-0.1-0.3-0.1-0.6-0.1-0.8l-0.6,0V251l0.6,0
										c-0.1-0.7-0.1-1.4-0.1-2l-1.6-0.1c0.1,0.1,0.2,0.3,0.2,0.4c0.3,1,0.3,2.1,0.2,2.6h-0.2c0-0.6-0.2-1.4-0.4-1.8
										c-0.4-1.1-1.5-2-3.1-3.1v1.3h-0.2c-0.6-1.8-2-2.8-4-3.8c-1.7-0.9-2.2-1.9-2.1-3.6l0.6,0.3c0.1,1.5,1.3,2.4,2.6,2.4
										c0.7,0,1.4-0.1,2.1-0.2c0.9-0.2,1.8-0.4,2.6-0.1v-0.9h-0.6c-0.2,0.2-0.6,0.4-1.2,0.4c-0.7,0-2-0.4-2-1.8
										c0-1.2,1-1.4,1.9-1.4c0.5,0,1.2,0,1.5,0c0.2,0,0.3,0,0.4-0.1c0.1-0.1,0.1-0.2,0.1-0.3c0-0.2,0-0.3,0-0.6c0-0.1,0-0.9,0-0.9
										h-4v1.6l-1.5-0.6v-0.4h0.7v-0.6h-2.7v-1.3h-0.9c-0.5,0-1,0.3-1.1,1c0,0.6,0.2,1.2,0.9,1.2h0.1v0.8h-0.1c-1.1,0-2-0.9-2-2
										c0-1.2,1-2.1,2.2-2.1h1.9v1.3h7.5c0,0,0,1.6,0,1.9c0,0.3,0,0.8,0,1c0,0.2-0.1,0.6-0.5,0.9c-0.2,0.2-0.6,0.2-1.1,0.2
										c-0.2,0-0.7,0-1.4,0c-0.9-0.1-1.1,0.3-1.1,0.6c0,0.1,0,0.1,0,0.2c0.4-0.3,1-0.5,1.6-0.3c1.1,0.4,1.5,0.4,2-0.1l0.1,0.1
										c-0.1,0.1-0.2,0.2-0.3,0.4h0.5v3l1.7-1h4.8c0,0,2,1.1,2.4,1.2c0.3,0.2,0.4,0.3,0.5,0.6c0,0.2,0,0.5-0.1,0.7
										c-0.1,0.1-0.6,1-0.9,1.5c0.8,0.9,1.4,2.1,1.4,3.5c0,1.2-0.5,2.8-2,4c0.7,0.2,1.1,0.6,1.4,1L358.4,257.6z M347.8,241.6
										c-0.7-0.1-1-0.1-1.4,0.3c0.2,0.1,0.4,0.1,0.7,0.1C347.4,242,347.6,241.8,347.8,241.6z M347.4,245.9l1.9-1.1
										c-0.4-0.2-0.8-0.3-1.3-0.3c-0.7,0-1.8,0.3-2.3,0.4C346,245,346.8,245.5,347.4,245.9z M355.8,246l0.3-0.4l-0.4-0.5l0.1-0.1
										l1.1,0.6l-0.2,0.8c0.2,0.1,0.4,0.2,0.6,0.4l0.7-1.2l-1.9-1h-4.2l-3.4,2.1c0.6,0.4,1.2,0.9,1.7,1.4c0.9-1.3,2.5-2.2,4.1-2.2
										C354.7,245.8,355.3,245.8,355.8,246z M355.5,250.8c0-0.6-0.1-1.2-0.2-1.7L353,249c-0.2,0.7-0.3,1.3-0.3,2L355.5,250.8z
										 M356.2,249.2c0.1,0.6,0.1,1.1,0,1.6l2.2-0.1c-0.1-0.5-0.2-1-0.4-1.4L356.2,249.2z M355.1,248.4c-0.2-0.8-0.5-1.4-0.7-1.6
										c-0.1,0-0.2,0-0.3,0c-0.2,0-0.3,0-0.5,0c-0.2,0.6-0.4,1.1-0.6,1.7L355.1,248.4z M355.7,247.1c0.2,0.4,0.3,0.9,0.4,1.3
										l1.4-0.1C357,247.8,356.4,247.3,355.7,247.1z M358.2,252.8c0.2-0.4,0.3-0.8,0.3-1.2l-2.3-0.1c-0.1,0.6-0.3,1.2-0.5,1.7
										L358.2,252.8z M352.5,247.2c-0.8,0.3-1.3,0.8-1.8,1.5l1.6-0.1C352.4,247.9,352.5,247.4,352.5,247.2z"/>
								</g>
								<g>
									<path class="st2" d="M349.6,261c0.6-0.1,1.3-0.6,1.3-1.4c0-0.7-0.3-1.4-2.3-1.4c-1.5,0-3.4,0-3.4,0v0.1
										c0.1,0,0.3,0.1,0.4,0.2c0.2,0.2,0.3,0.6,0.3,1v5.1c0,0,1.9,0,2.8,0c1.5,0,2.7-0.6,2.7-1.9
										C351.3,261.5,350.5,261.1,349.6,261z M348.2,258.8c0.7,0,1.2,0.2,1.2,0.9c0,0.8-0.7,1-1.4,1c-0.4,0-0.6,0-0.6,0v-2
										C347.3,258.8,347.7,258.8,348.2,258.8z M348.2,264c-0.3,0-0.9,0-0.9,0v-2.6c0,0,0.5,0,0.9,0c1.2,0,1.6,0.4,1.6,1.2
										C349.8,263.6,349.2,264,348.2,264z"/>
									<path class="st2" d="M342.7,264.6h1.8l-2.3-3c0.9-0.3,1.6-0.8,1.6-1.7c0-1.1-0.7-1.7-2.4-1.7c-1.5,0-3.5,0-3.5,0v0.1
										c0.1,0,0.3,0.1,0.4,0.2c0.2,0.2,0.3,0.6,0.3,1.1c0,0,0,4.9,0,4.9h1.5v-2.8c0,0,0.3,0,0.5,0L342.7,264.6z M340.1,258.8
										c0,0,0.6,0,1,0c0.8,0,1.3,0.2,1.3,1.1c0,0.8-0.6,1.2-1.5,1.2c-0.4,0-0.8,0-0.8,0V258.8z"/>
									<path class="st2" d="M357.3,259.1c0.4,0.2,0.5,0.5,0.5,0.5c0,0,0.1,0,0.1,0l0.3-1.1c0,0-0.6-0.4-1.9-0.4
										c-2.1,0-3.6,1-3.6,3.3c0,2.6,1.8,3.2,3.5,3.2c1.5,0,2.1-0.5,2.1-0.5v-0.7c0,0-0.5,0.5-1.7,0.5c-0.9,0-2.3-0.4-2.4-2.5
										c0-1.9,0.8-2.6,2-2.6C356.7,258.8,357.1,259,357.3,259.1z"/>
								</g>
							</g>
						</g>
					</g>
				</g>
			</g>
		</g>
	</g>
</g>
<g>
	<g>
		<path class="st0" d="M362.9,267.1c-0.9,0-1.6-0.7-1.6-1.6c0-0.9,0.7-1.6,1.6-1.6c0.9,0,1.6,0.7,1.6,1.6
			C364.5,266.4,363.8,267.1,362.9,267.1z M362.9,264.2c-0.7,0-1.2,0.6-1.2,1.3c0,0.7,0.5,1.3,1.2,1.3c0.7,0,1.2-0.6,1.2-1.3
			C364.1,264.8,363.6,264.2,362.9,264.2z M363,264.6c0.3,0,0.5,0.2,0.5,0.5c0,0.3-0.2,0.5-0.4,0.5c0,0,0.1,0,0.1,0.1
			c0.1,0.1,0.4,0.7,0.4,0.7h-0.4c-0.1-0.1-0.1-0.2-0.2-0.3c-0.2-0.3-0.2-0.4-0.3-0.4c0,0,0,0-0.1,0v0.7h-0.3v-1.8H363z M362.7,265.3
			h0.1c0.2,0,0.2,0,0.3-0.1c0,0,0.1-0.1,0.1-0.2c0-0.1,0-0.2-0.1-0.2c0,0-0.1,0-0.2,0h-0.1V265.3z"/>
	</g>
</g>
</svg>
