<svg xmlns="http://www.w3.org/2000/svg" viewBox="0 0 20 20" height="20" width="20">
    <path class="st0" fill="#0051A5" d="M8 0C3.6 0 0 3.6 0 8s3.6 8 8 8 8-3.6 8-8-3.6-8-8-8"/>
    <path class="st1" fill="#FFF" d="M8 9.8c-.3 0-.5-.2-.5-.5V7.9c0-.3.2-.5.5-.5.7 0 1.4-.6 1.4-1.3 0-.6-.4-1.3-1.2-1.3-.6-.1-1.2.3-1.3.8-.1.3-.3.4-.6.4-.3-.1-.4-.3-.4-.6.2-1 1.2-1.7 2.3-1.7 1.2 0 2.2 1 2.2 2.3 0 1.1-.8 2-1.9 2.3v1c0 .3-.2.5-.5.5M8.8 11.8c0 .4-.3.8-.8.8-.4 0-.8-.3-.8-.8 0-.4.3-.8.8-.8.4.1.8.4.8.8"/>
</svg>
