<?xml version="1.0" encoding="UTF-8"?>
<svg width="16px" height="16px" viewBox="0 0 16 16" version="1.1" xmlns="http://www.w3.org/2000/svg" xmlns:xlink="http://www.w3.org/1999/xlink">
    <!-- Generator: Sketch 44.1 (41455) - http://www.bohemiancoding.com/sketch -->
    <title>informational</title>
    <desc>Created with Sketch.</desc>
    <defs></defs>
    <g id="Page-1" stroke="none" stroke-width="1" fill="none" fill-rule="evenodd">
        <g id="informational" fill-rule="nonzero">
            <path d="M8,0 C3.6,0 0,3.6 0,8 C0,12.4 3.6,16 8,16 C12.4,16 16,12.4 16,8 C16,3.6 12.4,0 8,0 Z" id="Shape" fill="#456B86"></path>
            <path d="M7.65,10.6999756 L6.8809524,10.6999756 C6.6904762,10.6999756 6.5,10.8499756 6.5,11.0999756 C6.5,11.2999756 6.64285715,11.4999756 6.8809524,11.4999756 L9.1190476,11.4999756 C9.3095238,11.4999756 9.5,11.2999756 9.5,11.0999756 C9.5,10.8999756 9.35714285,10.6999756 9.1190476,10.6999756 L8.5,10.6999756 L8.5,6.8499756 C8.5,6.6499756 8.35,6.4499756 8.1,6.4499756 L6.9,6.4499756 C6.7,6.4499756 6.5,6.5999756 6.5,6.8499756 C6.5,7.0499756 6.65,7.2499756 6.9,7.2499756 L7.65,7.2499756 L7.65,10.6999756 Z M8.00002445,5.20000005 C7.66865355,5.20000005 7.4000244,4.93137088 7.4000244,4.60000002 C7.4000244,4.26862916 7.66865355,4 8.00002445,4 C8.3313953,4 8.60002445,4.26862916 8.60002445,4.60000002 C8.60002445,4.93137088 8.3313953,5.20000005 8.00002445,5.20000005 Z" id="Combined-Shape" fill="#FFFFFF"></path>
        </g>
    </g>
</svg>