<svg xmlns="http://www.w3.org/2000/svg" width="16" height="16" viewBox="0 0 16 16">
    <path class="st0" opacity=".4" fill="#585858" d="M8 16a.5.5 0 0 1-.5-.5V12a.5.5 0 1 1 1 0v3.5a.5.5 0 0 1-.5.5z"/>
    <path class="st1" fill="#585858" d="M8 4.5a.5.5 0 0 1-.5-.5V.5a.5.5 0 1 1 1 0V4a.5.5 0 0 1-.5.5z"/>
    <path class="st8" opacity=".7" fill="#585858" d="M15.5 8.5H12a.5.5 0 1 1 0-1h3.5a.5.5 0 1 1 0 1z"/>
    <path class="st9" opacity=".1" fill="#585858" d="M4 8.5H.5a.5.5 0 1 1 0-1H4a.5.5 0 1 1 0 1z"/>
    <path class="st3" opacity=".5" fill="#585858" d="M11.75 14.995a.5.5 0 0 1-.433-.25L9.559 11.7a.5.5 0 1 1 .866-.5l1.758 3.045a.5.5 0 0 1-.433.75z"/>
    <path class="st1" fill="#585858" d="M6.009 5.05a.5.5 0 0 1-.434-.25L3.817 1.755a.5.5 0 1 1 .866-.5L6.441 4.3a.5.5 0 0 1-.432.75z"/>
    <path class="st6" opacity=".05" fill="#585858" d="M4.55 6.508a.497.497 0 0 1-.25-.067L1.255 4.683a.5.5 0 1 1 .5-.866L4.8 5.575a.5.5 0 0 1-.25.933z"/>
    <path class="st5" opacity=".6" fill="#585858" d="M14.495 12.25a.497.497 0 0 1-.25-.067L11.2 10.425a.5.5 0 1 1 .5-.866l3.045 1.758a.5.5 0 0 1-.25.933z"/>
    <path class="st13" opacity=".8" fill="#585858" d="M11.45 6.508a.5.5 0 0 1-.25-.933l3.045-1.758a.5.5 0 1 1 .5.866L11.7 6.441a.497.497 0 0 1-.25.067z"/>
    <path class="st12" opacity=".2" fill="#585858" d="M1.505 12.25a.5.5 0 0 1-.25-.933L4.3 9.559a.5.5 0 1 1 .5.866l-3.045 1.758a.497.497 0 0 1-.25.067z"/>
    <path class="st17" opacity=".3" fill="#585858" d="M4.25 14.995a.5.5 0 0 1-.433-.75L5.575 11.2a.5.5 0 1 1 .866.5l-1.758 3.045a.5.5 0 0 1-.433.25z"/>
    <path class="st16" opacity=".9" fill="#585858" d="M9.991 5.05a.5.5 0 0 1-.433-.75l1.759-3.045a.5.5 0 1 1 .866.5L10.425 4.8a.5.5 0 0 1-.434.25z"/>
</svg>
