<svg xmlns="http://www.w3.org/2000/svg" width="128" height="128" viewBox="0 0 128 128">
    <path class="st0" opacity=".4" fill="#585858" d="M19.66 110.133a2.5 2.5 0 0 1-1.768-4.268l12.02-12.02a2.5 2.5 0 1 1 3.536 3.535L21.427 109.4a2.491 2.491 0 0 1-1.768.733z"/>
    <path class="st1" fill="#585858" d="M95.32 34.473a2.5 2.5 0 0 1-1.768-4.268l11.314-11.313a2.5 2.5 0 1 1 3.535 3.535L97.087 33.74a2.491 2.491 0 0 1-1.767.732z"/>
    <path class="st2" opacity=".45" fill="#585858" d="M32.748 120.261a2.5 2.5 0 0 1-2.163-3.75l8.558-14.823a2.499 2.499 0 1 1 4.33 2.5l-8.558 14.823a2.5 2.5 0 0 1-2.167 1.25z"/>
    <path class="st1" fill="#585858" d="M86.308 27.492a2.5 2.5 0 0 1-2.163-3.75l7.94-13.753a2.5 2.5 0 1 1 4.33 2.5l-7.94 13.753a2.5 2.5 0 0 1-2.167 1.25zM75.324 22.88a2.5 2.5 0 0 1-2.417-3.148L77.002 4.45a2.5 2.5 0 1 1 4.83 1.294l-4.095 15.283a2.501 2.501 0 0 1-2.413 1.854z"/>
    <path class="st3" opacity=".5" fill="#585858" d="M47.584 126.405a2.5 2.5 0 0 1-2.417-3.147l4.45-16.603a2.5 2.5 0 0 1 4.83 1.294l-4.45 16.602a2.501 2.501 0 0 1-2.413 1.854z"/>
    <path class="st1" fill="#585858" d="M63.5 21.293a2.5 2.5 0 0 1-2.5-2.5V3a2.5 2.5 0 1 1 5 0v15.793a2.5 2.5 0 0 1-2.5 2.5z"/>
    <path class="st4" opacity=".55" fill="#585858" d="M63.5 128.5A2.5 2.5 0 0 1 61 126v-17.207a2.5 2.5 0 1 1 5 0V126a2.5 2.5 0 0 1-2.5 2.5z"/>
    <path class="st5" opacity=".6" fill="#585858" d="M79.416 126.405a2.501 2.501 0 0 1-2.414-1.854l-4.448-16.602a2.5 2.5 0 0 1 4.83-1.294l4.449 16.602a2.5 2.5 0 0 1-2.417 3.148z"/>
    <path class="st1" fill="#585858" d="M51.676 22.88a2.501 2.501 0 0 1-2.413-1.854L45.167 5.743a2.5 2.5 0 0 1 4.83-1.294l4.096 15.283a2.5 2.5 0 0 1-2.417 3.148z"/>
    <path class="st6" opacity=".05" fill="#585858" d="M40.692 27.492a2.498 2.498 0 0 1-2.167-1.25l-7.94-13.753a2.5 2.5 0 1 1 4.33-2.5l7.94 13.753a2.5 2.5 0 0 1-2.163 3.75z"/>
    <path class="st7" opacity=".65" fill="#585858" d="M94.252 120.261a2.498 2.498 0 0 1-2.167-1.25l-8.558-14.823a2.5 2.5 0 1 1 4.33-2.5l8.558 14.823a2.5 2.5 0 0 1-2.163 3.75z"/>
    <path class="st8" opacity=".7" fill="#585858" d="M106.633 110.84c-.64 0-1.28-.243-1.767-.732l-12.02-12.02a2.5 2.5 0 1 1 3.534-3.536l12.02 12.021a2.5 2.5 0 0 1-1.767 4.268z"/>
    <path class="st9" opacity=".1" fill="#585858" d="M30.973 35.18c-.64 0-1.28-.244-1.767-.732L17.892 23.134a2.5 2.5 0 1 1 3.535-3.535L32.74 30.913a2.5 2.5 0 0 1-1.768 4.267z"/>
    <path class="st10" opacity=".15" fill="#585858" d="M24.226 44.327c-.424 0-.854-.108-1.248-.336L8.989 35.915a2.5 2.5 0 1 1 2.5-4.33l13.989 8.076a2.5 2.5 0 0 1-1.252 4.666z"/>
    <path class="st11" opacity=".75" fill="#585858" d="M116.758 97.75c-.424 0-.854-.107-1.247-.335l-14.594-8.426a2.5 2.5 0 1 1 2.5-4.33l14.594 8.426a2.5 2.5 0 0 1-1.253 4.665z"/>
    <path class="st12" opacity=".2" fill="#585858" d="M19.862 55.308a2.52 2.52 0 0 1-.648-.086L3.449 50.998a2.5 2.5 0 0 1 1.294-4.83l15.765 4.224a2.5 2.5 0 0 1-.646 4.916z"/>
    <path class="st13" opacity=".8" fill="#585858" d="M122.906 82.918a2.52 2.52 0 0 1-.649-.085l-16.12-4.32a2.5 2.5 0 0 1 1.293-4.83l16.121 4.32a2.5 2.5 0 0 1-.645 4.915z"/>
    <path class="st14" opacity=".25" fill="#585858" d="M18.517 67H2a2.5 2.5 0 1 1 0-5h16.517a2.5 2.5 0 1 1 0 5z"/>
    <path class="st15" opacity=".85" fill="#585858" d="M125 67h-16.517a2.5 2.5 0 1 1 0-5H125a2.5 2.5 0 1 1 0 5z"/>
    <path class="st16" opacity=".9" fill="#585858" d="M107.138 55.308a2.501 2.501 0 0 1-.646-4.916l15.765-4.225a2.5 2.5 0 0 1 1.294 4.83l-15.765 4.225a2.523 2.523 0 0 1-.648.086z"/>
    <path class="st17" opacity=".3" fill="#585858" d="M4.094 82.918a2.501 2.501 0 0 1-.645-4.916l16.12-4.32a2.5 2.5 0 1 1 1.294 4.83l-16.12 4.32a2.523 2.523 0 0 1-.649.086z"/>
    <path class="st18" opacity=".95" fill="#585858" d="M102.774 44.327a2.5 2.5 0 0 1-1.252-4.666l13.989-8.076a2.5 2.5 0 1 1 2.5 4.33l-13.989 8.076a2.486 2.486 0 0 1-1.248.336z"/>
    <path class="st19" opacity=".35" fill="#585858" d="M10.242 97.75a2.5 2.5 0 0 1-1.252-4.666l14.593-8.425a2.5 2.5 0 1 1 2.5 4.33l-14.594 8.426a2.486 2.486 0 0 1-1.247.335z"/>
</svg>