<svg xmlns="http://www.w3.org/2000/svg" width="32" height="32" viewBox="0 0 32 32">
    <path class="st0" opacity=".4" fill="#585858" d="M5.093 27.431a.7.7 0 0 1-.495-1.195l2.99-2.99a.7.7 0 0 1 .991.99l-2.99 2.99a.698.698 0 0 1-.496.205z"/>
    <path class="st1" fill="#585858" d="M23.916 8.608a.7.7 0 0 1-.495-1.195l2.815-2.815a.7.7 0 0 1 .99.99l-2.815 2.815a.698.698 0 0 1-.495.205z"/>
    <path class="st2" opacity=".45" fill="#585858" d="M8.35 29.95a.7.7 0 0 1-.606-1.05l2.129-3.687a.701.701 0 0 1 1.212.7L8.957 29.6a.7.7 0 0 1-.607.35z"/>
    <path class="st1" fill="#585858" d="M21.674 6.871a.699.699 0 0 1-.606-1.05L23.043 2.4a.701.701 0 0 1 1.213.7l-1.975 3.421a.7.7 0 0 1-.607.35zM18.941 5.724a.7.7 0 0 1-.677-.881l1.02-3.803a.7.7 0 1 1 1.352.362l-1.019 3.803a.7.7 0 0 1-.676.519z"/>
    <path class="st3" opacity=".5" fill="#585858" d="M12.04 31.479a.7.7 0 0 1-.677-.881l1.108-4.13a.7.7 0 0 1 1.352.362l-1.107 4.13a.7.7 0 0 1-.675.519z"/>
    <path class="st1" fill="#585858" d="M16 5.33a.7.7 0 0 1-.7-.701V.7a.7.7 0 1 1 1.4 0V4.63a.7.7 0 0 1-.7.7z"/>
    <path class="st4" opacity=".55" fill="#585858" d="M16 32a.7.7 0 0 1-.7-.7v-4.281a.7.7 0 1 1 1.4 0v4.28A.7.7 0 0 1 16 32z"/>
    <path class="st5" opacity=".6" fill="#585858" d="M19.96 31.479a.7.7 0 0 1-.676-.519l-1.107-4.13a.7.7 0 1 1 1.352-.363l1.107 4.13a.7.7 0 0 1-.677.882z"/>
    <path class="st1" fill="#585858" d="M13.059 5.724a.7.7 0 0 1-.676-.52l-1.02-3.802a.7.7 0 1 1 1.353-.362l1.02 3.802a.7.7 0 0 1-.677.882z"/>
    <path class="st6" opacity=".05" fill="#585858" d="M10.326 6.871a.7.7 0 0 1-.607-.35l-1.975-3.42A.701.701 0 0 1 8.957 2.4l1.975 3.42a.701.701 0 0 1-.606 1.051z"/>
    <path class="st7" opacity=".65" fill="#585858" d="M23.65 29.95a.7.7 0 0 1-.607-.35l-2.128-3.687a.7.7 0 0 1 1.212-.7l2.13 3.687a.7.7 0 0 1-.607 1.05z"/>
    <path class="st8" opacity=".7" fill="#585858" d="M26.731 27.607a.698.698 0 0 1-.495-.205l-2.99-2.99a.7.7 0 0 1 .99-.991l2.99 2.99a.7.7 0 0 1-.495 1.196z"/>
    <path class="st9" opacity=".1" fill="#585858" d="M7.908 8.784a.698.698 0 0 1-.495-.205L4.598 5.764a.7.7 0 0 1 .99-.99l2.815 2.815a.7.7 0 0 1-.495 1.195z"/>
    <path class="st10" opacity=".15" fill="#585858" d="M6.23 11.06c-.12 0-.24-.03-.35-.094L2.4 8.956a.7.7 0 0 1 .7-1.212l3.48 2.009a.701.701 0 0 1-.35 1.307z"/>
    <path class="st11" opacity=".75" fill="#585858" d="M29.25 24.35c-.12 0-.24-.03-.35-.094l-3.63-2.096a.7.7 0 0 1 .7-1.213l3.63 2.097a.7.7 0 0 1-.35 1.306z"/>
    <path class="st12" opacity=".2" fill="#585858" d="M5.144 13.791a.706.706 0 0 1-.182-.024l-3.922-1.05a.7.7 0 1 1 .362-1.353l3.923 1.05a.7.7 0 0 1-.181 1.377z"/>
    <path class="st13" opacity=".8" fill="#585858" d="M30.78 20.66a.706.706 0 0 1-.182-.024l-4.011-1.074a.7.7 0 1 1 .362-1.353l4.011 1.075a.7.7 0 0 1-.18 1.376z"/>
    <path class="st14" opacity=".25" fill="#585858" d="M4.81 16.7H.7a.7.7 0 1 1 0-1.4h4.11a.7.7 0 1 1 0 1.4z"/>
    <path class="st15" opacity=".85" fill="#585858" d="M31.3 16.7h-4.11a.7.7 0 1 1 0-1.4h4.11a.7.7 0 1 1 0 1.4z"/>
    <path class="st16" opacity=".9" fill="#585858" d="M26.856 13.791a.7.7 0 0 1-.18-1.376l3.922-1.051a.701.701 0 0 1 .362 1.352l-3.922 1.051a.706.706 0 0 1-.182.024z"/>
    <path class="st17" opacity=".3" fill="#585858" d="M1.22 20.66a.7.7 0 0 1-.18-1.376l4.01-1.075a.701.701 0 0 1 .363 1.353l-4.01 1.074a.706.706 0 0 1-.182.024z"/>
    <path class="st18" opacity=".95" fill="#585858" d="M25.77 11.06a.7.7 0 0 1-.35-1.307l3.48-2.01a.7.7 0 0 1 .7 1.213l-3.48 2.01a.699.699 0 0 1-.35.094z"/>
    <path class="st19" opacity=".35" fill="#585858" d="M2.75 24.35a.699.699 0 0 1-.35-1.306l3.63-2.097a.701.701 0 0 1 .7 1.213L3.1 24.256a.694.694 0 0 1-.35.094z"/>
</svg>
